<?xml version="1.0" standalone="no"?>
<!DOCTYPE svg PUBLIC "-//W3C//DTD SVG 20010904//EN"
 "http://www.w3.org/TR/2001/REC-SVG-20010904/DTD/svg10.dtd">
<svg version="1.0" xmlns="http://www.w3.org/2000/svg"
 width="720.000000pt" height="720.000000pt" viewBox="0 0 720.000000 720.000000"
 preserveAspectRatio="xMidYMid meet">
<metadata>
Created by potrace 1.14, written by Peter Selinger 2001-2017
</metadata>
<g transform="translate(0.000000,720.000000) scale(0.100000,-0.100000)"
fill="#000000" stroke="none">
<path d="M3352 7124 c-179 -14 -265 -26 -415 -55 -1271 -248 -2311 -1178
-2705 -2419 -164 -517 -203 -1097 -111 -1648 115 -691 452 -1358 938 -1856
295 -302 570 -510 912 -690 379 -199 751 -314 1234 -383 174 -24 630 -24 815
1 825 110 1514 443 2081 1006 563 558 902 1233 1020 2030 25 162 39 620 20
620 -14 0 -15 47 0 55 12 8 6 89 -22 295 -145 1057 -762 1990 -1687 2549 -476
287 -993 451 -1572 496 -225 17 -285 17 -508 -1z m589 -84 c490 -49 976 -204
1395 -446 271 -156 478 -317 719 -559 190 -190 308 -331 435 -520 264 -393
444 -840 530 -1311 66 -362 68 -830 4 -1199 -184 -1073 -875 -2006 -1853
-2502 -739 -375 -1586 -469 -2398 -268 -805 200 -1511 687 -2000 1380 -326
462 -532 1010 -604 1610 -23 182 -17 605 9 803 144 1070 738 1977 1663 2537
425 258 963 433 1474 478 94 8 532 6 626 -3z"/>
<path d="M3280 6869 c-414 -45 -790 -157 -1162 -346 -307 -156 -577 -352 -824
-598 -544 -543 -862 -1201 -955 -1980 -18 -143 -18 -568 -1 -705 42 -334 112
-610 229 -895 107 -264 291 -576 473 -805 108 -136 386 -415 520 -520 434
-344 960 -580 1490 -670 222 -37 315 -44 565 -44 270 0 418 14 644 60 1304
263 2320 1280 2581 2584 42 211 60 399 60 639 0 223 -9 342 -41 541 -86 539
-320 1068 -670 1510 -103 132 -393 423 -519 522 -474 374 -980 594 -1585 689
-104 17 -189 22 -425 24 -162 2 -333 -1 -380 -6z m255 -64 c0 -27 -3 -30 -30
-30 -21 0 -31 5 -33 18 -6 33 6 49 35 45 24 -3 28 -8 28 -33z m115 6 c0 -21
-6 -32 -20 -36 -24 -8 -50 10 -50 35 0 23 9 30 42 30 24 0 28 -4 28 -29z m98
-3 c-3 -37 -35 -50 -57 -24 -21 25 -4 56 30 56 28 0 30 -2 27 -32z m117 -9 c0
-20 -6 -25 -32 -27 -31 -3 -33 -1 -33 27 0 32 14 42 45 31 12 -5 20 -16 20
-31z m-440 1 c0 -21 -5 -26 -32 -28 -31 -3 -33 -1 -33 28 0 29 2 31 33 28 27
-2 32 -7 32 -28z m539 17 c28 -21 17 -52 -19 -52 -24 0 -31 5 -33 24 -2 13 2
28 10 32 18 12 21 11 42 -4z m-649 -27 c0 -21 -5 -26 -31 -28 -23 -2 -33 2
-36 15 -8 32 2 44 36 41 26 -2 31 -7 31 -28z m-112 -2 c7 -26 -8 -48 -33 -48
-25 0 -43 25 -35 50 9 29 61 28 68 -2z m885 -9 c3 -29 -14 -41 -47 -32 -13 3
-21 13 -21 27 0 30 9 38 40 34 19 -2 26 -10 28 -29z m103 11 c5 0 9 -14 9 -31
0 -28 -2 -30 -32 -27 -22 2 -34 9 -36 21 -5 23 17 49 35 42 8 -3 19 -5 24 -5z
m-1101 -29 c0 -21 -6 -30 -22 -34 -26 -7 -48 8 -48 33 0 23 9 30 42 30 24 0
28 -4 28 -29z m-112 -20 c6 -43 -53 -59 -64 -17 -8 34 3 48 34 44 20 -2 28
-10 30 -27z m1332 0 c0 -16 -6 -31 -12 -34 -22 -8 -58 11 -58 31 0 25 8 32 42
32 24 0 28 -4 28 -29z m-1441 -13 c5 -13 6 -29 4 -35 -7 -19 -60 -16 -67 3
-10 26 -7 34 17 44 33 13 37 12 46 -12z m1539 13 c20 -13 11 -56 -13 -59 -32
-4 -49 13 -41 42 6 26 29 33 54 17z m-389 -36 c701 -97 1318 -402 1811 -895
496 -495 796 -1106 896 -1821 25 -174 25 -615 1 -786 -50 -358 -139 -659 -283
-962 -430 -903 -1281 -1555 -2264 -1735 -371 -68 -832 -63 -1205 14 -741 152
-1413 579 -1869 1187 -447 596 -657 1284 -625 2045 41 928 503 1793 1266 2364
348 261 800 463 1228 549 113 23 299 49 410 59 107 9 524 -4 634 -19z m-1259
-6 c14 -26 -3 -49 -36 -49 -31 0 -44 38 -18 57 25 18 42 16 54 -8z m1754 15
c18 -7 22 -49 5 -59 -21 -14 -59 5 -59 29 0 35 17 44 54 30z m110 -37 c10 -7
16 -22 14 -33 -5 -26 -61 -27 -66 -1 -8 43 17 59 52 34z m-1968 -19 c7 -22
-16 -48 -43 -48 -19 0 -33 42 -21 58 17 20 56 15 64 -10z m-110 -34 c8 -31 -6
-47 -37 -42 -30 4 -38 37 -13 55 27 20 43 16 50 -13z m2193 12 c14 -17 -1 -56
-22 -56 -26 0 -47 24 -41 48 7 26 45 30 63 8z m-2299 -47 c15 -26 7 -45 -19
-52 -40 -10 -68 42 -33 62 26 16 40 13 52 -10z m2394 15 c18 -7 22 -49 5 -59
-21 -14 -59 5 -59 29 0 35 17 44 54 30z m111 -48 c18 -13 18 -15 2 -40 -15
-23 -20 -24 -42 -14 -28 12 -30 20 -15 49 13 22 29 24 55 5z m-2607 -28 c4
-31 -29 -48 -53 -28 -18 15 -19 46 -2 54 28 12 52 1 55 -26z m-110 -20 c18
-18 14 -46 -9 -58 -39 -22 -70 37 -31 59 22 13 26 13 40 -1z m2825 -10 c22
-34 -36 -66 -62 -34 -9 11 -10 20 -1 36 13 25 47 24 63 -2z m-2925 -40 c20
-20 14 -48 -14 -60 -21 -10 -27 -9 -35 3 -14 22 -11 47 9 58 22 13 26 13 40
-1z m3016 -1 c26 -19 13 -57 -18 -57 -33 0 -50 23 -36 49 12 24 29 26 54 8z
m100 -56 c14 -15 15 -24 6 -40 -13 -24 -29 -26 -55 -7 -17 12 -18 18 -7 40 14
31 32 33 56 7z m-3209 -26 c0 -25 -4 -31 -27 -33 -19 -2 -28 2 -33 18 -8 27
12 52 39 48 16 -2 21 -10 21 -33z m3309 -34 c15 -17 15 -20 -2 -41 -16 -19
-22 -21 -40 -11 -24 13 -29 40 -10 59 17 17 32 15 52 -7z m-3403 -7 c17 -21 0
-49 -31 -49 -31 0 -48 28 -31 49 8 9 21 16 31 16 10 0 23 -7 31 -16z m3493
-49 c16 -12 18 -19 8 -40 -14 -30 -33 -32 -56 -6 -14 15 -15 24 -6 40 13 24
28 26 54 6z m-3588 -21 c7 -28 -7 -44 -38 -44 -21 0 -33 37 -18 55 20 24 49
18 56 -11z m-98 -46 c18 -18 14 -46 -9 -58 -39 -22 -70 37 -31 59 22 13 26 13
40 -1z m3783 -4 c27 -33 -24 -70 -55 -39 -12 12 -13 21 -6 36 13 23 43 25 61
3z m82 -59 c22 -16 19 -43 -5 -59 -14 -8 -22 -6 -38 9 -18 19 -19 22 -4 43 18
26 22 26 47 7z m-3955 -7 c30 -30 -11 -85 -44 -57 -25 21 -11 69 21 69 6 0 16
-5 23 -12z m4047 -68 c35 -38 -11 -79 -48 -42 -20 21 -20 22 -2 42 22 25 27
25 50 0z m-4135 -5 c26 -31 -13 -82 -44 -56 -21 18 -20 48 2 60 23 14 28 13
42 -4z m-76 -113 c-16 -25 -51 -27 -64 -3 -8 17 -6 25 11 42 l21 21 21 -21
c17 -17 19 -25 11 -39z m4296 43 c18 -22 8 -50 -19 -50 -32 0 -49 28 -32 49
17 20 35 20 51 1z m93 -87 c12 -35 -34 -63 -61 -36 -16 16 -15 33 4 52 17 17
48 8 57 -16z m-4478 2 c18 -20 18 -21 -2 -42 -37 -37 -83 4 -48 42 23 25 28
25 50 0z m4549 -71 c17 -25 12 -46 -15 -54 -41 -13 -68 43 -31 64 24 15 29 14
46 -10z m-4630 -5 c21 -20 20 -27 -3 -48 -35 -31 -76 10 -45 45 21 23 28 24
48 3z m-64 -103 c0 -25 -25 -44 -49 -36 -29 9 -33 33 -11 55 16 16 25 18 40
10 11 -6 20 -19 20 -29z m4771 23 c9 -11 10 -20 2 -32 -13 -22 -43 -22 -56 -1
-24 38 25 68 54 33z m74 -84 c18 -20 18 -21 -3 -42 -21 -21 -22 -21 -42 -3
-23 21 -25 36 -8 53 17 17 32 15 53 -8z m-4921 -12 c8 -14 6 -22 -12 -40 l-22
-22 -22 21 c-21 22 -21 23 -3 43 21 24 43 23 59 -2z m5000 -80 c15 -24 -19
-61 -44 -48 -24 13 -33 40 -19 57 15 18 49 13 63 -9z m-5071 -10 c22 -34 -36
-66 -62 -34 -9 11 -10 20 -1 36 13 25 47 24 63 -2z m5138 -80 c10 -18 8 -24
-11 -40 -21 -17 -24 -17 -41 -2 -22 20 -24 35 -7 52 19 19 46 14 59 -10z
m-5217 6 c32 -12 11 -64 -25 -64 -24 0 -32 16 -25 46 6 24 21 29 50 18z m5274
-86 c30 -30 -11 -85 -44 -57 -25 21 -11 69 21 69 6 0 16 -5 23 -12z m-5333
-12 c18 -13 18 -15 2 -40 -20 -30 -25 -31 -51 -11 -16 12 -18 19 -8 40 13 28
29 31 57 11z m5389 -82 c22 -22 20 -51 -4 -59 -41 -13 -69 43 -32 64 9 6 18
11 19 11 1 0 9 -7 17 -16z m-5439 -24 c10 -16 -19 -51 -39 -48 -32 5 -43 34
-22 57 18 20 45 16 61 -9z m5505 -79 c15 -28 13 -39 -11 -51 -37 -20 -67 28
-37 58 18 18 36 15 48 -7z m-5579 -1 c24 -13 24 -32 0 -54 -33 -30 -73 6 -48
44 14 23 21 24 48 10z m5640 -102 c10 -18 8 -24 -11 -40 -21 -17 -24 -17 -41
-2 -22 20 -24 35 -7 52 19 19 46 14 59 -10z m-5697 6 c20 -8 21 -48 2 -63 -33
-28 -74 27 -44 57 14 14 20 14 42 6z m5746 -104 c12 -23 7 -35 -20 -50 -16 -8
-22 -6 -36 15 -13 20 -14 28 -4 40 18 21 47 19 60 -5z m-5796 4 c19 -7 21 -34
3 -58 -11 -15 -17 -17 -35 -7 -24 13 -29 40 -10 59 14 14 20 14 42 6z m5834
-96 c20 -20 14 -56 -10 -64 -38 -12 -65 45 -30 65 22 13 26 13 40 -1z m-5884
-4 c20 -8 21 -48 2 -63 -11 -9 -20 -10 -35 -1 -24 12 -26 23 -11 51 11 20 19
23 44 13z m5939 -116 c8 -28 -10 -50 -37 -46 -21 3 -32 28 -22 54 9 23 53 17
59 -8z m-5968 1 c12 -18 -4 -59 -23 -59 -31 0 -45 16 -38 44 5 19 13 26 31 26
13 0 27 -5 30 -11z m6005 -98 c15 -29 12 -41 -12 -50 -28 -11 -48 3 -48 34 0
36 43 47 60 16z m-6052 -3 c16 -16 15 -30 -1 -52 -11 -15 -17 -17 -35 -7 -33
18 -23 71 13 71 6 0 16 -5 23 -12z m6091 -110 c10 -27 -3 -48 -30 -48 -25 0
-44 37 -28 56 17 21 49 17 58 -8z m-6124 -23 c0 -24 -5 -31 -24 -33 -31 -5
-44 10 -35 42 5 22 11 27 33 24 22 -2 26 -8 26 -33z m6160 -86 c9 -26 -13 -51
-39 -47 -29 4 -36 64 -9 70 26 6 41 -1 48 -23z m-6187 -14 c4 -32 -13 -49 -42
-41 -19 5 -26 13 -26 30 0 30 9 38 40 34 16 -2 26 -10 28 -23z m6213 -92 c8
-23 7 -30 -8 -40 -28 -21 -48 -11 -51 24 -3 30 3 36 41 42 4 0 12 -11 18 -26z
m-6260 7 c38 -21 17 -77 -25 -66 -28 7 -33 25 -16 57 12 22 15 23 41 9z m6277
-102 c20 -20 14 -55 -10 -62 -39 -10 -65 43 -30 63 22 13 26 13 40 -1z m-6286
-39 c-4 -32 -16 -42 -41 -34 -24 7 -30 60 -8 68 25 9 52 -10 49 -34z m6302
-65 c35 -13 14 -74 -25 -74 -5 0 -14 12 -20 27 -8 22 -7 30 7 40 21 15 18 15
38 7z m-6326 -46 c-2 -25 -8 -34 -24 -36 -27 -4 -45 18 -37 46 4 16 13 22 35
22 27 0 29 -2 26 -32z m6360 -97 c6 -40 -39 -56 -58 -20 -17 31 -5 51 27 47
21 -2 29 -9 31 -27z m-6372 5 c3 -8 0 -24 -6 -36 -22 -42 -73 -10 -56 36 7 18
55 18 62 0z m6390 -112 c8 -31 -6 -47 -37 -42 -43 6 -38 68 5 68 19 0 27 -7
32 -26z m-6408 -22 c3 -31 2 -33 -25 -30 -17 2 -29 10 -31 21 -6 30 6 49 30
45 18 -2 24 -11 26 -36z m6418 -88 c8 -31 -6 -47 -37 -42 -43 6 -38 68 5 68
19 0 27 -7 32 -26z m-6428 3 c6 -7 9 -23 5 -35 -4 -16 -13 -22 -34 -22 -25 0
-29 4 -29 28 0 16 3 32 7 35 11 11 40 8 51 -6z m6430 -124 c3 -31 1 -33 -27
-33 -27 0 -31 3 -31 28 0 35 8 44 35 40 15 -2 21 -12 23 -35z m-6431 1 c8 -22
-10 -49 -32 -49 -10 0 -22 7 -28 16 -15 24 -1 49 28 49 15 0 28 -7 32 -16z m0
-100 c9 -24 -10 -49 -38 -49 -24 0 -36 23 -25 51 7 19 55 18 63 -2z m6431 -16
c-2 -28 -7 -33 -28 -33 -21 0 -26 5 -28 33 -3 30 -1 32 28 32 29 0 31 -2 28
-32z m0 -100 c-2 -28 -7 -33 -28 -33 -21 0 -26 5 -28 33 -3 30 -1 32 28 32 29
0 31 -2 28 -32z m-6433 -13 c0 -27 -3 -30 -30 -30 -21 0 -31 5 -33 18 -6 33 6
49 35 45 24 -3 28 -8 28 -33z m6430 -100 c0 -27 -3 -30 -30 -30 -21 0 -31 5
-33 18 -6 33 6 49 35 45 24 -3 28 -8 28 -33z m-6425 10 c20 -25 8 -50 -25 -50
-31 0 -43 20 -31 51 7 18 40 18 56 -1z m6415 -120 c0 -27 -3 -30 -30 -30 -21
0 -31 5 -33 18 -6 33 6 49 35 45 24 -3 28 -8 28 -33z m-6405 6 c15 -29 12 -41
-12 -50 -33 -12 -48 -3 -48 29 0 41 41 55 60 21z m6381 -92 c15 -7 18 -16 13
-32 -14 -45 -64 -43 -64 2 0 42 14 50 51 30z m-6373 -11 c19 -19 14 -56 -8
-63 -41 -13 -69 43 -32 64 22 13 26 13 40 -1z m6353 -98 c39 -21 14 -75 -29
-63 -24 6 -30 41 -10 61 15 15 15 15 39 2z m-6325 -36 c4 -17 2 -29 -7 -35
-26 -16 -48 -10 -55 15 -8 32 2 46 31 46 18 0 26 -7 31 -26z m6305 -74 c36
-20 10 -78 -29 -66 -24 8 -30 44 -10 64 15 15 15 15 39 2z m-6281 -46 c0 -14
-8 -25 -20 -29 -44 -14 -70 48 -27 64 28 11 47 -3 47 -35z m6261 -64 c14 0 10
-46 -5 -59 -16 -14 -56 1 -56 20 0 23 22 50 37 45 8 -3 19 -6 24 -6z m-6237
-33 c7 -27 -11 -49 -38 -45 -29 4 -36 64 -9 70 27 6 40 -1 47 -25z m6200 -73
c20 -8 21 -48 2 -63 -11 -9 -20 -10 -35 -1 -24 12 -26 23 -11 51 11 20 19 23
44 13z m-6173 -31 c8 -22 7 -30 -7 -40 -26 -19 -44 -16 -53 10 -13 35 -2 49
42 56 4 0 12 -11 18 -26z m6147 -82 c22 -14 10 -56 -17 -59 -31 -5 -45 11 -37
42 6 26 29 33 54 17z m-6120 -13 c18 -18 14 -46 -9 -58 -26 -14 -49 3 -49 35
0 32 35 46 58 23z m6090 -100 c14 -19 -4 -58 -26 -58 -30 0 -46 24 -32 49 12
23 42 28 58 9z m-6048 -19 c9 -15 8 -24 -1 -35 -17 -21 -49 -17 -58 9 -17 43
37 67 59 26z m6005 -83 c18 -13 18 -15 2 -40 -20 -30 -26 -31 -52 -12 -17 12
-18 18 -7 40 13 29 29 33 57 12z m-5963 -22 c11 -23 10 -28 -7 -40 -23 -17
-34 -14 -52 13 -12 18 -12 23 2 37 24 23 44 20 57 -10z m5909 -74 c38 -21 12
-79 -31 -65 -22 7 -26 26 -10 56 12 22 15 23 41 9z m-5865 -36 c4 -17 2 -29
-7 -35 -26 -16 -48 -10 -55 15 -8 32 2 46 31 46 18 0 26 -7 31 -26z m5832 -76
c6 -8 6 -22 1 -36 -10 -27 -46 -27 -62 0 -21 33 36 66 61 36z m-5782 -24 c4
-17 2 -29 -7 -35 -26 -16 -48 -10 -55 15 -8 32 2 46 31 46 18 0 26 -7 31 -26z
m5732 -89 c4 -32 -13 -49 -42 -41 -28 7 -35 33 -14 54 19 19 53 10 56 -13z
m-5682 -11 c4 -17 2 -29 -7 -35 -26 -16 -48 -10 -55 15 -8 32 2 46 31 46 18 0
26 -7 31 -26z m5615 -64 c22 -12 24 -29 6 -54 -9 -13 -20 -16 -34 -12 -28 9
-35 29 -17 55 17 24 19 25 45 11z m-5561 -31 c14 -24 -2 -49 -31 -49 -25 0
-44 37 -28 56 17 20 47 17 59 -7z m5510 -74 c15 -19 -1 -65 -23 -65 -18 0 -37
21 -37 40 0 36 38 51 60 25z m-5456 -18 c8 -12 8 -22 0 -34 -18 -29 -42 -27
-56 2 -11 24 -10 29 7 41 22 17 34 14 49 -9z m5390 -73 c20 -8 21 -38 1 -54
-17 -14 -55 -4 -55 15 0 39 19 53 54 39z m-5324 -25 c14 -24 -2 -49 -31 -49
-25 0 -44 37 -28 56 17 20 47 17 59 -7z m5270 -74 c10 -12 9 -20 -4 -40 -14
-21 -20 -23 -36 -15 -27 15 -32 27 -20 50 13 24 42 26 60 5z m-5212 -7 c26
-26 8 -58 -34 -58 -20 0 -30 50 -13 61 19 12 33 11 47 -3z m5146 -90 c8 -14 6
-22 -10 -38 -20 -21 -21 -21 -44 -2 -20 16 -21 20 -9 40 16 26 47 26 63 0z
m-5071 -10 c8 -12 7 -21 -2 -32 -19 -22 -48 -20 -61 5 -23 41 38 68 63 27z
m74 -112 c-11 -28 -37 -30 -60 -7 l-22 22 24 20 c24 20 25 20 44 0 12 -11 17
-26 14 -35z m4926 32 c22 -34 -36 -66 -62 -34 -9 11 -10 20 -1 36 13 25 47 24
63 -2z m-79 -77 c15 -17 15 -20 -2 -41 -16 -19 -22 -21 -40 -11 -24 13 -29 40
-10 59 17 17 32 15 52 -7z m-4786 -3 c16 -16 15 -43 -3 -58 -13 -10 -19 -10
-35 5 -11 10 -20 23 -20 30 0 14 21 35 35 35 6 0 16 -5 23 -12z m4704 -75 c22
-20 22 -27 2 -47 -21 -22 -41 -20 -54 5 -9 16 -8 25 6 40 21 23 23 23 46 2z
m-4628 -6 c22 -16 18 -46 -7 -61 -15 -9 -22 -7 -38 13 -18 22 -18 25 -3 42 20
23 25 23 48 6z m4550 -73 c9 -8 16 -19 16 -24 0 -14 -30 -40 -45 -40 -8 0 -19
9 -25 21 -9 16 -8 25 6 40 21 23 28 24 48 3z m-4470 -7 c22 -16 18 -46 -7 -61
-15 -9 -22 -7 -38 13 -18 22 -18 25 -3 42 20 23 25 23 48 6z m4397 -78 c9 -18
7 -25 -10 -42 -20 -20 -21 -20 -41 -2 -25 22 -26 41 -2 54 26 16 40 13 53 -10z
m-4311 -4 c17 -20 4 -65 -18 -65 -38 0 -53 37 -26 64 19 20 28 20 44 1z m4220
-60 c26 -31 -13 -82 -44 -56 -21 18 -20 48 2 60 23 14 28 13 42 -4z m-4136
-14 c14 -15 15 -24 6 -40 -13 -26 -32 -27 -54 -2 -14 15 -15 24 -6 40 13 26
32 27 54 2z m4050 -63 c15 -21 14 -24 -3 -42 -36 -35 -79 7 -46 44 23 25 30
25 49 -2z m-3959 -8 c18 -20 18 -21 -2 -41 -17 -17 -24 -19 -42 -10 -23 13
-28 40 -9 59 17 17 32 15 53 -8z m3869 -62 c15 -21 14 -24 -4 -43 -16 -15 -24
-17 -38 -9 -24 16 -27 43 -5 59 25 19 29 19 47 -7z m-3779 -8 c18 -20 18 -21
-2 -41 -18 -18 -23 -19 -42 -8 -23 15 -27 39 -9 57 17 17 32 15 53 -8z m102
-76 c2 -6 -3 -18 -11 -29 -12 -17 -17 -18 -40 -7 -30 13 -33 28 -9 54 14 16
19 16 37 5 11 -8 21 -18 23 -23z m3589 10 c8 -29 -9 -46 -41 -42 -40 6 -25 68
16 68 12 0 21 -10 25 -26z m-92 -57 c9 -15 7 -22 -13 -38 -22 -18 -25 -18 -42
-3 -24 21 -24 40 -1 53 23 14 43 10 56 -12z m-3415 4 c22 -14 5 -63 -21 -59
-26 4 -43 30 -35 52 7 17 34 21 56 7z m111 -76 c0 -25 -26 -48 -47 -41 -29 9
-37 35 -17 57 13 14 20 16 40 7 13 -6 24 -16 24 -23z m3206 9 c8 -29 -9 -46
-41 -42 -24 3 -33 46 -13 59 25 16 48 9 54 -17z m-108 -36 c18 -18 14 -46 -9
-58 -39 -22 -70 37 -31 59 22 13 26 13 40 -1z m-3012 -12 c15 -12 17 -18 8
-33 -25 -42 -87 -16 -64 26 13 25 29 26 56 7z m2912 -38 c18 -18 14 -46 -9
-58 -39 -22 -70 37 -31 59 22 13 26 13 40 -1z m-2814 -11 c26 -19 13 -57 -18
-57 -33 0 -50 23 -36 49 12 24 29 26 54 8z m2714 -39 c18 -18 14 -46 -9 -58
-39 -22 -70 37 -31 59 22 13 26 13 40 -1z m-2608 -13 c15 -19 3 -55 -19 -55
-9 0 -25 6 -35 13 -15 11 -17 17 -7 35 13 25 43 29 61 7z m101 -35 c6 0 9 -12
7 -27 -2 -24 -8 -28 -33 -28 -21 0 -31 5 -33 18 -5 23 17 49 35 42 8 -3 19 -5
24 -5z m2415 -12 c7 -22 -16 -48 -43 -48 -21 0 -36 39 -22 56 18 22 57 18 65
-8z m-2312 -31 c13 -9 16 -20 12 -34 -9 -30 -31 -35 -57 -14 -18 15 -20 21
-10 39 13 25 29 28 55 9z m2204 -16 c4 -25 -11 -41 -40 -41 -23 0 -36 49 -17
61 24 16 54 6 57 -20z m-105 -31 c6 -23 -3 -36 -30 -44 -16 -5 -25 -2 -32 13
-16 29 -13 41 12 50 28 11 44 5 50 -19z m-1988 -15 c0 -22 -5 -31 -20 -33 -33
-4 -49 13 -41 43 5 21 12 26 34 23 23 -2 27 -8 27 -33z m103 -4 c8 -4 12 -19
10 -32 -2 -19 -9 -24 -33 -24 -21 0 -31 5 -33 18 -8 40 22 60 56 38z m1778
-13 c7 -22 -16 -48 -43 -48 -21 0 -36 39 -22 56 18 22 57 18 65 -8z m-1668
-17 c8 -4 12 -19 10 -32 -2 -19 -9 -24 -33 -24 -21 0 -31 5 -33 18 -8 40 22
60 56 38z m1558 -13 c7 -22 -16 -48 -43 -48 -19 0 -33 42 -21 58 17 20 56 15
64 -10z m-113 -20 c17 -26 1 -50 -30 -46 -22 2 -29 9 -31 30 -4 37 40 49 61
16z m-1325 -14 c4 -27 -18 -45 -46 -37 -22 5 -31 41 -15 57 15 15 58 1 61 -20z
m110 -23 c5 -31 -11 -45 -42 -37 -19 5 -26 13 -26 30 0 30 9 38 40 34 18 -2
26 -10 28 -27z m1110 1 c2 -16 -3 -25 -20 -31 -33 -12 -48 -3 -48 31 0 27 2
29 33 26 24 -2 33 -8 35 -26z m-1000 -19 c4 -27 -18 -43 -45 -32 -25 9 -30 38
-12 56 16 16 53 0 57 -24z m885 16 c16 -26 1 -49 -32 -49 -34 0 -48 32 -24 56
18 18 42 15 56 -7z m-775 -28 c5 -31 -11 -45 -42 -37 -19 5 -26 13 -26 30 0
30 9 38 40 34 18 -2 26 -10 28 -27z m666 7 c10 -41 -44 -65 -64 -29 -15 29 -2
51 30 51 20 0 29 -6 34 -22z m-556 0 c14 -19 -4 -58 -26 -58 -27 0 -45 25 -37
50 7 23 46 28 63 8z m117 -29 c0 -20 -6 -25 -32 -27 -31 -3 -33 -1 -33 27 0
32 14 42 45 31 12 -5 20 -16 20 -31z m203 32 c8 -4 12 -19 10 -32 -2 -19 -9
-24 -33 -24 -24 0 -31 5 -33 24 -4 23 11 41 33 41 6 0 16 -4 23 -9z m122 -20
c0 -21 -6 -32 -20 -36 -24 -8 -50 10 -50 35 0 23 9 30 42 30 24 0 28 -4 28
-29z m-225 -11 c0 -21 -5 -26 -32 -28 -31 -3 -33 -1 -33 28 0 29 2 31 33 28
27 -2 32 -7 32 -28z"/>
<path d="M3403 6669 c-611 -39 -1214 -272 -1705 -661 -123 -97 -398 -369 -492
-488 -166 -209 -344 -509 -445 -754 -92 -221 -162 -478 -204 -746 -29 -187
-31 -630 -4 -825 126 -900 609 -1672 1357 -2170 536 -357 1144 -531 1789 -512
222 7 344 20 544 62 868 179 1627 740 2070 1531 192 343 316 736 368 1169 16
129 16 500 0 635 -38 322 -109 600 -223 870 -380 897 -1150 1563 -2083 1800
-182 47 -370 76 -570 90 -166 11 -223 11 -402 -1z m591 -64 c665 -90 1250
-371 1725 -830 463 -448 763 -1008 880 -1640 66 -358 62 -781 -10 -1140 -246
-1227 -1235 -2186 -2469 -2395 -368 -62 -810 -51 -1165 29 -1168 263 -2077
1186 -2315 2351 -80 393 -82 819 -5 1205 179 901 760 1674 1580 2101 354 185
741 297 1150 334 140 12 487 4 629 -15z"/>
<path d="M3400 6444 c0 -7 11 -16 25 -20 l25 -6 0 -157 c0 -183 -3 -201 -36
-201 -16 0 -24 -6 -24 -17 0 -16 10 -18 77 -18 81 0 103 13 53 32 l-30 11 0
141 c0 78 3 141 8 141 4 0 63 -74 132 -165 105 -138 129 -165 151 -165 l26 0
6 113 c4 61 7 150 7 195 0 75 2 84 20 89 11 3 20 12 20 19 0 11 -17 14 -70 14
-56 0 -70 -3 -70 -15 0 -8 9 -15 20 -15 29 0 31 -12 28 -129 l-3 -102 -90 116
c-49 64 -95 123 -101 131 -16 20 -174 28 -174 8z"/>
<path d="M4018 6415 c-55 -18 -109 -75 -126 -134 -27 -89 -8 -196 45 -243 54
-49 168 -76 245 -58 156 38 212 269 92 382 -57 53 -177 77 -256 53z m165 -56
c54 -42 57 -162 6 -266 -37 -76 -116 -94 -170 -37 -21 23 -24 35 -24 102 0 92
23 160 66 197 37 31 86 33 122 4z"/>
<path d="M2890 6370 c-97 -25 -145 -42 -145 -51 0 -9 9 -13 22 -11 29 4 34 -7
78 -187 l38 -155 -21 -14 c-27 -18 -30 -47 -4 -37 30 12 166 45 185 45 12 0
17 6 15 18 -2 13 -11 16 -35 14 -30 -3 -32 -1 -43 40 -5 24 -14 58 -19 76 -11
38 -3 44 57 46 29 1 39 -4 47 -21 5 -13 16 -23 24 -23 9 0 11 7 7 23 -3 12
-11 46 -17 75 -13 54 -39 73 -39 27 0 -26 -17 -39 -65 -49 l-31 -7 -18 71
c-22 85 -19 91 58 98 52 4 56 3 67 -22 11 -24 29 -33 41 -20 3 3 -1 27 -10 55
-11 33 -21 49 -31 48 -9 -1 -81 -19 -161 -39z"/>
<path d="M4416 6325 c-3 -8 3 -19 14 -25 11 -6 20 -16 20 -22 0 -20 -112 -313
-123 -319 -5 -4 -18 -4 -28 -2 -12 4 -19 0 -19 -9 0 -9 34 -28 88 -49 48 -19
90 -35 95 -37 13 -6 7 21 -9 39 -15 17 -14 23 7 83 13 37 29 66 36 66 27 0 41
-32 48 -107 4 -43 11 -88 16 -100 11 -30 109 -80 120 -62 5 8 2 20 -5 29 -8 8
-19 47 -26 85 -6 39 -17 83 -24 100 -12 30 -12 30 33 45 54 18 83 54 84 105 1
52 -46 94 -144 127 -41 14 -97 35 -126 46 -43 18 -52 19 -57 7z m216 -119 c24
-36 -7 -122 -47 -132 -31 -8 -81 10 -77 27 2 8 14 44 28 81 l26 68 31 -17 c18
-8 35 -21 39 -27z"/>
<path d="M2464 6234 c-49 -18 -119 -75 -139 -115 -23 -43 -19 -135 9 -194 46
-101 133 -148 233 -127 186 39 259 192 167 349 -40 70 -85 97 -163 100 -40 1
-82 -3 -107 -13z m127 -82 c62 -65 98 -198 69 -253 -13 -24 -61 -49 -96 -49
-63 0 -154 142 -154 241 0 50 12 74 48 94 43 24 91 12 133 -33z"/>
<path d="M4826 6139 c-15 -22 -25 -47 -22 -55 6 -16 26 -19 26 -5 0 12 39 26
65 22 53 -7 50 -21 -37 -172 -82 -140 -85 -144 -115 -142 -44 4 -50 -14 -13
-35 18 -9 61 -34 97 -55 64 -38 88 -42 65 -9 -7 9 -15 22 -18 28 -7 15 157
304 172 304 25 0 56 -48 52 -81 -5 -54 23 -49 51 8 19 39 20 49 10 56 -8 4
-69 39 -137 77 -67 38 -133 77 -146 85 -22 15 -24 14 -50 -26z"/>
<path d="M5175 5980 c-4 -6 1 -20 10 -30 11 -12 14 -24 8 -32 -18 -31 -193
-257 -203 -263 -5 -3 -18 -1 -29 5 -34 18 -39 -11 -6 -34 16 -12 53 -41 83
-64 38 -31 57 -41 65 -33 7 7 5 16 -7 30 -18 20 -17 22 30 86 26 36 51 65 54
65 4 0 37 -23 74 -51 42 -31 64 -54 59 -62 -4 -7 -25 -36 -47 -65 -35 -47 -43
-53 -67 -48 -33 6 -50 -12 -25 -26 9 -5 46 -32 82 -59 36 -27 69 -49 75 -49
14 0 11 21 -6 40 -14 15 -5 29 86 151 97 129 102 134 135 132 21 -2 34 2 34
10 -1 19 -160 131 -171 120 -6 -6 -4 -14 6 -23 22 -18 19 -27 -25 -87 l-41
-53 -69 52 c-39 29 -70 56 -70 59 0 4 18 30 41 59 29 37 45 50 57 45 61 -24
47 5 -33 67 -89 69 -92 70 -100 58z"/>
<path d="M1950 5924 c-45 -36 -68 -73 -36 -60 9 3 22 9 30 12 10 4 16 -8 20
-48 4 -29 9 -70 12 -91 l6 -38 -65 25 c-36 14 -75 30 -87 36 -20 11 -21 13 -5
30 9 10 14 23 11 29 -4 6 -43 -18 -91 -56 -77 -61 -100 -92 -56 -78 14 4 157
-39 233 -70 20 -8 98 -109 98 -126 0 -7 -8 -21 -17 -31 -10 -11 -13 -22 -7
-28 6 -6 34 11 74 43 36 29 78 61 94 73 38 28 27 50 -14 29 -16 -8 -31 -15
-33 -15 -2 0 -24 26 -49 58 l-46 59 -12 122 c-10 92 -10 125 -2 133 7 7 12 16
12 20 0 17 -26 6 -70 -28z"/>
<path d="M3400 5843 c-483 -51 -890 -220 -1251 -521 -429 -359 -705 -861 -791
-1437 -21 -146 -16 -492 10 -645 82 -477 287 -885 615 -1219 371 -378 826
-604 1352 -671 108 -14 409 -14 526 0 518 63 992 297 1354 671 182 188 308
368 421 604 151 316 217 610 217 970 1 458 -123 867 -378 1250 -369 555 -975
922 -1647 994 -91 10 -348 12 -428 4z m550 -67 c1199 -206 2007 -1308 1835
-2505 -102 -705 -554 -1330 -1195 -1652 -230 -115 -458 -185 -720 -220 -138
-19 -440 -16 -580 5 -641 97 -1186 444 -1537 976 -486 739 -485 1694 3 2430
213 321 519 592 862 764 214 107 499 189 762 220 85 10 479 -3 570 -18z"/>
<path d="M3305 5735 c-875 -124 -1595 -773 -1804 -1625 -97 -397 -80 -816 49
-1203 183 -547 591 -1009 1115 -1262 821 -397 1813 -227 2461 422 829 829 845
2164 37 3014 -322 337 -735 558 -1208 645 -126 23 -515 28 -650 9z m593 -101
c817 -122 1481 -723 1687 -1528 195 -762 -68 -1590 -663 -2086 -331 -276 -714
-438 -1136 -479 -146 -15 -244 -14 -407 4 -848 90 -1549 692 -1769 1519 -53
200 -64 290 -64 531 0 241 11 331 64 531 221 832 941 1441 1800 1524 119 11
360 3 488 -16z"/>
<path d="M3556 5593 c-11 -3 -66 -29 -123 -59 -56 -30 -114 -54 -128 -54 -31
0 -43 25 -26 52 17 27 10 30 -30 16 -51 -17 -129 -70 -175 -119 -45 -48 -119
-158 -111 -166 3 -2 43 14 89 36 260 126 518 116 773 -29 41 -24 90 -56 108
-72 l32 -28 -40 26 c-209 136 -447 190 -656 146 -102 -21 -238 -78 -312 -132
-37 -26 -46 -39 -55 -81 -17 -71 -15 -210 4 -281 19 -75 44 -138 54 -138 4 0
10 24 13 54 20 193 232 340 443 306 314 -50 544 -354 483 -638 l-10 -49 -67
-7 c-37 -3 -108 -6 -158 -6 -89 0 -91 0 -112 30 -26 34 -49 42 -32 11 14 -27
13 -41 -4 -35 -8 3 -27 29 -41 56 -15 28 -42 73 -60 99 -47 69 -69 140 -62
205 4 40 2 54 -7 54 -21 0 -65 -50 -75 -84 l-8 -31 -11 41 c-10 32 -9 52 3 99
9 32 14 60 11 62 -14 15 -96 -65 -96 -93 0 -9 -4 -12 -10 -9 -15 9 -12 89 6
141 8 25 14 48 11 50 -9 9 -89 -71 -109 -109 -28 -57 -35 -149 -14 -219 l16
-55 72 -18 c100 -23 205 -75 268 -132 l53 -47 -28 -8 c-22 -5 -38 1 -83 31
-77 52 -103 64 -200 95 -103 32 -148 55 -190 97 -39 38 -106 173 -122 244 -16
70 -13 210 5 280 19 72 72 187 115 251 18 25 29 48 26 51 -12 13 -148 -91
-220 -167 -84 -90 -145 -202 -172 -315 -31 -132 -10 -328 50 -477 l24 -59 -32
21 c-90 61 -157 71 -247 40 -87 -29 -141 -62 -183 -112 -39 -45 -46 -64 -18
-53 56 24 102 39 106 34 3 -3 -18 -75 -47 -160 -52 -153 -52 -154 -83 -157
-31 -3 -115 -64 -103 -76 3 -3 21 0 41 6 65 20 70 10 40 -81 -26 -81 -39 -94
-62 -66 -7 8 -35 22 -64 31 -51 16 -51 16 -98 -11 -47 -26 -88 -77 -88 -110 0
-14 7 -11 35 14 40 35 50 37 71 16 9 -8 27 -15 41 -15 22 0 24 -3 19 -22 -19
-65 -18 -125 1 -163 l20 -38 -72 -211 c-42 -122 -82 -221 -95 -235 l-23 -26
-8 23 c-22 60 -51 238 -56 344 -17 345 100 730 302 999 83 111 241 262 344
329 75 49 81 55 81 86 0 19 -3 34 -7 34 -17 0 -145 -84 -219 -144 -84 -67
-188 -178 -263 -278 -87 -116 -51 -45 48 97 76 108 235 265 354 349 53 37 97
72 97 78 0 5 14 44 32 86 34 81 122 219 187 292 23 25 41 48 41 53 0 19 -232
-117 -349 -205 -356 -267 -623 -666 -730 -1093 -47 -187 -55 -262 -55 -490 0
-187 3 -238 22 -340 67 -351 201 -642 425 -920 120 -149 338 -339 490 -428 55
-32 75 -29 31 5 -16 12 -53 47 -83 78 -146 151 -233 331 -248 518 -3 39 -9 72
-13 72 -7 0 -83 -147 -95 -184 -5 -17 -8 -18 -19 -5 -41 42 -130 181 -175 271
-45 92 -111 257 -111 280 0 9 160 9 205 -1 l30 -6 0 -93 c0 -89 -1 -93 -23
-99 -13 -3 -39 -3 -58 0 -31 5 -33 4 -24 -14 15 -27 68 -52 99 -45 14 3 41 8
59 12 79 16 121 131 91 249 -15 60 -4 108 34 151 26 31 32 46 35 100 4 59 6
64 28 64 15 0 32 -12 46 -31 21 -28 27 -30 78 -29 30 1 58 1 62 1 4 -1 -13
-40 -37 -88 -89 -176 -121 -326 -112 -527 6 -141 32 -239 103 -376 140 -273
457 -483 848 -562 155 -32 447 -32 616 0 637 119 1161 520 1440 1103 163 343
224 750 166 1124 -87 566 -404 1064 -873 1372 -136 89 -461 238 -480 220 -3
-3 12 -21 33 -39 139 -119 231 -230 291 -353 28 -56 46 -78 93 -113 193 -142
390 -385 474 -586 14 -33 14 -36 -2 -36 -11 0 -30 23 -50 60 -84 152 -246 332
-388 430 -40 27 -75 50 -78 50 -3 0 -6 -17 -6 -39 0 -31 5 -42 28 -56 66 -43
175 -142 230 -208 69 -83 158 -224 148 -234 -3 -4 -50 -2 -103 5 -70 8 -101 8
-110 0 -9 -7 -61 -9 -158 -6 l-145 5 0 -33 c0 -18 -5 -36 -10 -39 -6 -4 -24
-30 -40 -58 -54 -95 -38 -188 54 -305 55 -70 76 -118 76 -174 0 -70 -12 -77
-60 -35 -24 21 -63 41 -91 48 -27 7 -49 19 -49 26 0 33 -47 131 -91 189 l-48
64 48 74 c121 185 155 426 87 616 -15 41 -28 82 -29 90 -4 27 46 12 75 -22 15
-17 31 -29 34 -25 22 22 -78 209 -145 271 -34 33 -41 65 -13 67 40 3 59 -4 91
-34 l34 -32 -7 30 c-17 71 -108 145 -242 198 -78 30 -114 58 -114 87 0 28 36
43 91 38 27 -3 49 -2 49 3 0 15 -52 48 -102 65 -50 16 -144 16 -276 -2 -48 -7
-97 9 -107 34 -9 24 27 50 81 58 52 7 53 22 3 40 -33 12 -146 16 -183 7z m435
-440 c13 -16 12 -17 -3 -4 -10 7 -18 15 -18 17 0 8 8 3 21 -13z m13 -533 c10
-25 21 -83 23 -130 6 -97 -9 -170 -56 -275 -29 -62 -31 -65 -58 -59 -15 4 -31
10 -35 13 -4 4 10 41 32 82 68 129 91 300 56 414 -9 28 -16 52 -16 55 0 11 37
-58 54 -100z m-2064 -280 c-6 -11 -13 -20 -16 -20 -2 0 0 9 6 20 6 11 13 20
16 20 2 0 0 -9 -6 -20z m529 -37 l45 -26 -44 -13 c-45 -13 -59 -8 -60 23 0 6
-3 18 -6 27 -9 23 13 20 65 -11z m1370 -35 c-7 -13 -20 -34 -29 -48 -9 -14
-15 -31 -13 -38 3 -7 -1 -10 -11 -6 -16 6 -21 39 -10 69 5 13 51 42 72 45 1 0
-3 -10 -9 -22z m-295 -39 c9 -47 3 -45 -22 7 -20 41 -21 44 -3 35 10 -6 21
-25 25 -42z m1492 -46 c46 -111 97 -420 74 -448 -10 -12 -41 -15 -151 -15
l-139 0 0 48 c0 27 9 75 20 107 26 76 26 166 0 224 -11 24 -20 61 -20 82 l0
39 100 0 100 0 16 -37z m104 13 c15 -42 50 -235 49 -274 -1 -29 -3 -25 -10 22
-8 54 -49 219 -64 259 -4 10 -3 17 4 17 6 0 16 -11 21 -24z m-552 -111 l3
-108 -40 34 c-23 20 -45 50 -52 73 -12 36 -11 40 9 56 12 10 22 25 22 33 0 15
24 27 45 22 6 -1 11 -48 13 -110z m-2011 58 l35 -16 -38 -19 c-21 -10 -48 -27
-59 -38 l-22 -21 -21 57 c-12 30 -22 58 -22 61 0 10 91 -7 127 -24z m310 -12
c-44 -49 -53 -66 -62 -118 -10 -61 16 -139 67 -203 l42 -53 -39 7 c-50 9 -158
59 -203 93 -54 41 -52 15 3 -33 61 -54 167 -109 238 -124 38 -7 54 -15 54 -27
0 -25 -97 -11 -192 27 -46 19 -106 34 -142 37 l-63 6 -40 125 c-23 68 -38 127
-35 130 3 3 31 8 63 10 45 3 70 -1 110 -18 28 -12 57 -28 63 -36 19 -23 29
-16 29 19 0 80 37 153 92 180 50 25 53 20 15 -22z m375 -2 c17 -9 18 -13 7
-20 -22 -14 -37 -10 -49 11 -9 16 -8 20 5 20 9 0 26 -5 37 -11z m600 -85 c5
-3 4 -12 -2 -19 -8 -10 -3 -21 21 -45 28 -28 35 -30 56 -21 13 6 32 11 41 11
26 0 72 -75 97 -160 8 -25 7 -25 -13 -6 -16 14 -30 17 -53 12 -22 -4 -29 -2
-27 7 3 6 17 13 32 15 33 4 32 31 -2 48 -35 17 -60 6 -88 -37 -13 -22 -30 -39
-37 -39 -7 0 -32 20 -56 45 -24 25 -47 45 -52 45 -5 0 -9 37 -9 81 l0 82 42
-7 c22 -4 45 -9 50 -12z m-541 -239 c24 -8 85 -36 135 -61 l91 -47 2 -133 c2
-148 -3 -158 -51 -106 -37 39 -48 65 -48 111 0 23 -4 41 -9 41 -11 0 -31 -55
-31 -85 0 -32 53 -109 93 -134 43 -26 47 -36 47 -112 l0 -60 -37 7 c-21 3 -49
11 -63 18 -36 16 -77 106 -99 216 -19 99 -51 175 -95 228 -27 31 -30 48 -20
101 7 36 20 38 85 16z m-935 -172 c24 -80 42 -148 40 -150 -2 -2 -14 -1 -27 2
-19 5 -24 13 -26 40 -1 18 -16 66 -33 106 -26 58 -31 80 -26 112 8 46 18 67
24 49 2 -6 23 -78 48 -159z m1702 -48 c-8 -148 -56 -249 -147 -306 -73 -47
-87 -47 -132 -3 l-39 38 0 116 c0 96 3 122 20 155 11 22 20 45 20 52 0 9 17
13 58 13 31 0 72 4 90 9 l32 10 0 -43 c0 -24 -7 -65 -15 -92 -21 -68 -19 -72
16 -38 47 44 79 106 84 160 6 68 7 72 12 49 3 -11 3 -65 1 -120z m-1318 70
c42 -19 108 -42 148 -52 65 -15 72 -19 72 -42 0 -13 7 -51 16 -83 l17 -59 -31
-42 c-55 -74 -118 -170 -150 -231 -19 -34 -34 -53 -37 -45 -38 105 -44 134
-38 189 6 65 -9 103 -46 115 -15 4 -31 40 -65 143 -25 75 -46 142 -46 148 0
18 71 -1 160 -41z m-550 -113 c0 -1 -11 5 -25 14 -31 20 -38 44 -24 80 11 29
11 29 30 -31 10 -33 19 -61 19 -63z m2871 58 c13 -7 19 -21 19 -44 0 -67 -40
-265 -76 -379 -31 -96 -40 -115 -56 -114 -22 2 -23 -7 16 142 30 113 31 166 2
100 -75 -170 -105 -225 -125 -225 -44 0 -49 30 -51 278 0 128 2 237 5 242 8
13 241 13 266 0z m-666 -135 c11 -24 24 -34 55 -44 60 -18 68 -48 34 -125 -47
-108 -41 -223 14 -243 11 -5 1 -12 -33 -22 -47 -15 -50 -18 -53 -53 l-3 -37
180 6 c135 5 181 3 181 -5 0 -7 -31 -44 -70 -83 -38 -40 -70 -75 -70 -78 0 -4
19 -26 43 -49 l43 -42 51 78 c29 42 64 101 79 130 21 40 32 52 50 52 21 0 22
-2 11 -27 -40 -93 -122 -231 -181 -306 -20 -26 -36 -15 -142 95 -146 153 -228
283 -274 436 -19 61 -22 90 -18 180 3 67 10 121 20 143 14 32 20 36 43 31 19
-3 31 -15 40 -37z m-2281 -88 c11 -15 21 -48 24 -80 4 -46 1 -57 -22 -84 -32
-38 -51 -83 -61 -140 -7 -46 -11 -49 -49 -32 -42 20 -42 27 25 242 24 77 45
127 52 124 6 -2 20 -15 31 -30z m972 -114 c-3 -6 -25 -38 -50 -70 -24 -32 -62
-90 -83 -130 -35 -65 -40 -70 -51 -52 -7 10 -21 19 -32 19 -11 0 -20 6 -20 14
0 21 64 140 123 229 l52 78 32 -38 c18 -21 31 -43 29 -50z m233 -123 c153 -56
191 -74 191 -92 0 -22 -35 -45 -82 -53 -36 -7 -38 -9 -38 -46 0 -31 4 -39 19
-39 10 0 24 -7 31 -14 37 -46 189 -58 259 -21 53 27 48 10 -15 -53 -60 -59
-131 -99 -191 -109 -18 -3 -36 -10 -40 -16 -12 -20 112 4 179 35 70 32 159
112 172 156 5 16 15 22 37 22 26 0 29 3 29 30 0 17 -5 38 -11 48 -8 12 -9 38
-5 75 l7 56 54 16 c30 8 74 24 98 34 l44 19 6 -146 c6 -164 25 -259 81 -396
38 -94 123 -232 186 -300 l41 -44 -56 -30 c-200 -108 -478 -174 -670 -157
-213 18 -408 140 -482 301 -70 153 -20 392 120 581 46 62 46 63 24 74 -33 17
-77 60 -93 92 -15 28 -15 28 7 16 13 -6 57 -24 98 -39z m461 -77 c0 -5 -5 -15
-10 -23 -7 -12 -12 -12 -22 -2 -10 10 -10 15 2 22 18 12 30 13 30 3z m-1060
-116 c0 -1 -12 -47 -26 -102 -20 -76 -27 -135 -31 -243 l-6 -143 -19 43 c-40
89 -60 205 -56 318 2 59 8 111 12 118 6 10 126 19 126 9z m170 -14 c0 -5 -9
-37 -20 -72 -66 -211 -64 -462 6 -637 57 -140 179 -295 304 -382 86 -60 92
-67 45 -47 -77 31 -191 110 -261 180 -121 121 -202 287 -222 455 -13 107 2
291 32 406 15 53 26 98 26 100 0 2 20 4 45 4 25 0 45 -3 45 -7z m750 -22 c-17
-10 -85 -15 -145 -11 l-40 3 40 7 c59 11 163 11 145 1z"/>
<path d="M3225 2577 c-21 -110 84 -271 223 -341 148 -75 358 -91 544 -43 100
26 288 103 288 118 0 5 -8 17 -17 27 -10 9 -30 33 -45 51 l-26 34 -34 -28
c-66 -56 -232 -117 -274 -101 -18 7 -3 42 30 68 30 24 14 32 -29 13 -88 -36
-265 -60 -279 -37 -4 7 23 28 84 62 26 15 6 18 -55 8 -101 -17 -277 5 -260 31
3 5 36 12 73 16 101 10 104 15 21 35 -100 25 -189 64 -216 97 l-21 26 -7 -36z"/>
<path d="M3491 4594 c-33 -28 -39 -49 -17 -57 7 -3 36 -35 62 -71 50 -67 65
-72 45 -14 -19 53 -14 102 14 132 14 15 25 29 25 32 0 2 -22 4 -49 4 -39 0
-56 -6 -80 -26z"/>
<path d="M1524 5539 c-65 -72 -120 -134 -122 -138 -1 -4 16 -24 38 -46 34 -33
40 -36 46 -21 4 10 2 22 -5 29 -6 6 -11 20 -11 32 0 23 26 65 41 65 17 0 249
-224 249 -240 0 -9 -5 -21 -12 -28 -8 -8 -9 -15 -2 -22 8 -8 34 15 88 74 72
80 87 117 32 81 -24 -16 -26 -15 -150 101 -69 64 -126 121 -126 125 0 21 51
41 90 35 49 -8 57 4 22 35 -60 54 -48 60 -178 -82z"/>
<path d="M1322 5288 c-39 -52 -58 -86 -52 -92 6 -6 17 -3 30 9 20 18 22 16
157 -87 76 -58 137 -112 137 -119 -1 -8 -3 -21 -5 -29 -9 -35 23 -9 80 65 40
51 58 82 51 89 -6 6 -16 3 -29 -8 -23 -21 -14 -26 -175 94 -84 63 -126 100
-123 110 3 8 6 21 8 29 2 7 -1 15 -7 17 -6 3 -38 -33 -72 -78z"/>
<path d="M5715 5361 c-47 -12 -87 -36 -127 -78 -44 -45 -58 -79 -58 -138 0
-113 113 -235 218 -235 29 0 33 3 30 23 -2 18 -11 23 -44 27 -82 11 -133 75
-119 148 13 68 141 172 213 172 33 0 76 -27 96 -60 23 -40 20 -84 -9 -118 -21
-25 -22 -32 -11 -47 12 -16 16 -15 64 20 29 20 52 41 52 47 0 6 -16 41 -37 80
-43 82 -98 133 -167 153 -54 16 -57 16 -101 6z"/>
<path d="M1165 5049 c-25 -33 -49 -78 -55 -99 -14 -54 5 -108 50 -138 52 -35
104 -26 188 32 71 49 101 56 126 30 20 -20 20 -37 0 -79 -21 -44 -63 -62 -112
-47 -34 11 -62 3 -62 -18 0 -6 96 -70 106 -70 2 0 25 19 50 42 112 103 117
236 11 287 -58 28 -91 20 -175 -40 -87 -64 -132 -63 -132 2 0 56 69 96 120 69
15 -8 21 -6 29 9 9 16 4 23 -38 50 -26 17 -51 31 -54 31 -4 0 -27 -27 -52 -61z"/>
<path d="M5676 4891 c-3 -5 8 -35 25 -67 36 -69 35 -68 48 -59 8 4 8 12 0 27
-14 27 2 38 58 38 42 0 43 -1 73 -60 l30 -59 -31 -36 c-35 -40 -55 -44 -64
-15 -6 19 -35 29 -35 13 0 -21 96 -193 107 -193 9 0 12 8 8 23 -4 18 22 52
140 181 135 149 144 161 131 180 -16 24 -7 23 -267 13 -152 -7 -179 -6 -192 8
-18 17 -24 19 -31 6z m309 -101 l-49 -50 -22 42 c-26 51 -21 56 66 57 l54 1
-49 -50z"/>
<path d="M995 4665 c-20 -21 -42 -61 -56 -102 -12 -38 -33 -92 -46 -122 -18
-41 -20 -56 -11 -62 7 -5 18 0 26 12 7 10 19 19 25 19 7 0 80 -26 162 -58 138
-54 150 -60 153 -85 6 -49 27 -28 63 63 35 89 35 118 0 86 -10 -9 -22 -16 -28
-16 -24 0 -123 43 -123 54 1 29 21 38 101 47 128 14 127 13 154 76 14 31 23
58 20 61 -3 3 -17 0 -32 -7 -16 -7 -64 -19 -107 -27 -44 -7 -84 -18 -90 -24
-17 -17 -24 -11 -31 27 -10 53 -56 93 -107 93 -33 0 -47 -6 -73 -35z m105 -80
c16 -8 31 -24 35 -35 7 -23 -2 -77 -15 -85 -4 -2 -34 6 -66 19 -33 13 -67 26
-77 29 -17 6 -17 8 -1 39 9 18 22 36 28 40 18 12 65 9 96 -7z"/>
<path d="M6253 4564 c2 -27 -1 -29 -161 -82 -151 -50 -165 -53 -181 -38 -21
19 -45 21 -38 4 3 -7 18 -50 33 -95 28 -84 50 -105 56 -56 3 23 12 29 70 49
l68 23 6 -25 c5 -21 -5 -36 -65 -98 -39 -41 -71 -81 -71 -91 0 -27 22 -105 31
-110 4 -3 15 8 23 24 9 16 38 56 66 87 28 32 53 68 56 81 l6 23 29 -24 c37
-32 63 -39 103 -32 52 10 80 47 79 104 -2 61 -76 276 -97 280 -11 2 -14 -4
-13 -24z m51 -156 c11 -41 6 -64 -16 -85 -49 -45 -108 -41 -133 8 -9 17 -15
35 -12 42 3 10 116 54 143 56 7 1 14 -9 18 -21z"/>
<path d="M813 4103 c-22 -111 -29 -161 -21 -168 7 -7 12 -6 15 1 16 44 20 44
189 10 88 -18 166 -36 173 -40 6 -4 11 -17 9 -29 -2 -14 2 -22 12 -22 8 0 16
11 18 25 2 14 17 90 32 169 16 80 28 146 27 147 -7 6 -101 44 -108 44 -18 0
-8 -23 22 -51 31 -29 32 -32 25 -90 -7 -73 -12 -82 -40 -76 -11 3 -46 10 -77
17 l-57 11 8 33 c10 47 18 56 45 56 28 0 43 19 25 30 -7 4 -35 11 -61 14 -27
4 -56 9 -64 12 -24 9 -18 -24 6 -37 18 -9 21 -17 16 -51 -3 -22 -8 -42 -10
-45 -3 -2 -36 2 -74 9 l-68 14 2 39 c4 50 27 84 63 92 60 11 20 43 -54 43 -20
0 -24 -12 -53 -157z"/>
<path d="M6138 4110 c-86 -26 -148 -110 -148 -200 0 -63 25 -143 57 -181 95
-113 312 -81 374 55 52 114 -4 279 -108 322 -35 15 -132 17 -175 4z m210 -124
c34 -18 57 -69 47 -109 -15 -59 -96 -97 -207 -97 -105 0 -148 30 -148 102 0
58 41 96 127 118 51 13 143 6 181 -14z"/>
<path d="M780 3868 c0 -24 -3 -53 -6 -65 -5 -17 -2 -23 11 -23 9 0 19 9 22 20
3 11 12 20 19 20 17 0 244 -112 244 -121 0 -3 -60 -22 -132 -41 l-133 -35 -9
23 c-6 13 -16 24 -23 24 -9 0 -13 -19 -13 -67 0 -38 -3 -85 -6 -105 -5 -30 -3
-38 9 -38 8 0 17 9 20 19 4 15 38 30 153 66 280 87 259 78 259 111 0 27 -9 33
-180 121 -99 50 -187 101 -196 112 -26 32 -39 25 -39 -21z"/>
<path d="M6000 3542 c0 -71 -3 -149 -6 -174 l-6 -45 48 -12 c27 -7 57 -14 67
-17 12 -4 17 0 17 15 0 12 -6 21 -14 21 -8 0 -26 14 -40 31 -21 25 -26 41 -26
88 l0 57 168 -4 c92 -2 173 -9 180 -14 6 -6 12 -21 12 -34 0 -15 6 -24 15 -24
12 0 15 18 17 100 0 55 1 105 2 112 2 24 -24 18 -30 -6 l-6 -26 -142 0 c-179
0 -214 6 -218 34 -2 11 -11 22 -20 24 -16 3 -18 -8 -18 -126z"/>
<path d="M1166 3426 c-7 -28 -30 -32 -233 -42 -131 -7 -133 -7 -133 15 0 13
-6 21 -16 21 -15 0 -16 -10 -10 -77 3 -42 6 -89 6 -105 0 -18 5 -28 15 -28 9
0 15 9 15 25 0 30 1 31 194 44 153 11 176 7 176 -25 0 -8 7 -14 16 -14 14 0
16 8 10 46 -3 26 -6 73 -6 105 0 44 -4 59 -14 59 -8 0 -17 -11 -20 -24z"/>
<path d="M5978 3203 c-10 -64 -12 -101 -5 -108 6 -7 11 -6 14 1 16 45 18 45
198 16 l170 -27 3 -28 c7 -55 28 -28 41 51 7 42 15 89 18 105 4 20 1 27 -10
27 -9 0 -19 -9 -22 -20 -8 -25 -25 -25 -189 0 -152 24 -176 32 -176 60 0 11
-6 20 -13 20 -9 0 -18 -32 -29 -97z"/>
<path d="M1035 3125 c-171 -39 -193 -41 -201 -20 -4 8 -13 15 -21 15 -11 0
-13 -7 -9 -25 4 -14 9 -45 13 -70 6 -48 33 -65 33 -21 0 14 5 28 11 32 12 7
175 44 196 44 8 0 -34 -58 -91 -129 l-106 -129 17 -76 c17 -77 39 -101 45 -49
3 27 6 29 153 60 180 39 195 39 202 13 3 -11 13 -20 23 -20 17 0 17 3 4 53 -7
28 -14 62 -14 75 0 13 -6 22 -15 22 -9 0 -15 -9 -15 -24 0 -14 -4 -27 -10 -31
-11 -7 -273 -65 -277 -61 -1 1 47 63 108 137 160 193 162 195 154 219 -8 26
-19 25 -200 -15z"/>
<path d="M5931 3010 c-12 -37 -21 -73 -21 -79 0 -19 27 -12 33 9 7 28 32 25
176 -19 l123 -38 -197 -79 c-166 -66 -199 -83 -207 -104 -6 -14 -25 -55 -44
-92 -23 -46 -30 -69 -22 -74 6 -4 16 0 23 9 18 25 30 21 63 -20 l30 -38 -29
-57 c-31 -61 -34 -63 -102 -51 -29 4 -37 10 -34 22 11 39 11 46 1 46 -6 0 -34
-43 -62 -97 -39 -74 -48 -98 -37 -102 8 -3 19 2 24 12 8 15 24 15 222 -7 205
-23 213 -23 226 -6 7 11 13 21 13 24 0 3 -41 58 -91 121 -154 194 -171 218
-173 248 -2 27 0 29 24 21 14 -4 79 -24 145 -44 66 -20 135 -41 153 -46 24 -8
32 -16 32 -35 0 -48 28 -25 48 39 20 67 12 100 -15 60 -20 -29 -29 -29 -138 6
l-90 29 40 17 c22 9 91 37 154 63 l114 47 23 70 c13 39 23 73 24 78 0 14 -22
7 -38 -13 -17 -20 -18 -19 -173 28 -86 27 -161 52 -168 57 -7 4 -10 17 -7 30
4 15 1 25 -8 28 -11 4 -20 -13 -35 -63z m69 -661 c0 -3 -32 -1 -70 4 -68 10
-70 10 -57 31 8 12 20 32 27 45 l13 24 43 -49 c24 -27 43 -52 44 -55z"/>
<path d="M1150 2655 c-169 -72 -159 -69 -186 -55 -13 8 -26 11 -29 8 -8 -8 49
-128 60 -125 5 2 10 17 10 32 0 27 7 32 110 76 136 59 182 63 219 19 14 -17
28 -47 32 -66 11 -58 -15 -81 -157 -141 -122 -52 -124 -52 -141 -33 -16 20
-38 27 -38 13 0 -5 17 -50 37 -100 36 -88 58 -112 58 -65 1 30 6 34 141 92
191 81 217 130 148 276 -51 107 -126 127 -264 69z"/>
<path d="M1710 1899 c-78 -31 -150 -131 -150 -208 0 -60 32 -122 87 -171 52
-45 100 -63 158 -58 33 2 41 7 43 26 3 21 0 22 -58 22 -58 0 -65 3 -97 35 -34
34 -35 38 -31 91 11 129 157 241 246 189 32 -19 62 -63 62 -90 0 -9 -7 -33
-16 -52 -15 -30 -15 -36 -2 -49 12 -13 19 -9 56 30 23 25 42 51 42 59 0 24
-122 149 -165 168 -44 20 -134 24 -175 8z"/>
<path d="M5170 1767 c-25 -23 -61 -55 -80 -69 -26 -20 -32 -30 -24 -38 9 -9
17 -8 33 1 25 16 12 27 150 -135 101 -117 102 -118 85 -143 -32 -49 1 -44 62
10 47 42 124 107 197 168 11 9 -45 120 -58 116 -5 -2 -9 -19 -8 -38 2 -19 0
-44 -2 -57 -6 -23 -71 -102 -85 -102 -10 0 -230 258 -230 269 0 5 7 14 15 21
18 15 20 40 3 40 -7 0 -33 -20 -58 -43z"/>
<path d="M2065 1699 c-5 -6 -1 -16 9 -21 9 -5 16 -14 16 -20 0 -6 -42 -74 -92
-150 -91 -136 -94 -138 -125 -134 -23 3 -33 1 -33 -8 0 -18 168 -128 176 -115
3 6 -2 19 -11 29 -17 19 -15 22 30 89 27 40 53 68 59 64 57 -32 135 -96 129
-106 -45 -79 -87 -128 -101 -122 -28 11 -34 11 -39 -1 -3 -10 154 -124 171
-124 11 0 6 23 -9 40 -14 16 -10 26 46 110 33 51 79 117 100 147 36 48 42 52
61 42 16 -9 23 -9 26 -1 6 19 0 24 -82 79 -51 34 -83 50 -89 44 -6 -6 -4 -16
7 -26 9 -9 16 -20 16 -23 0 -11 -70 -112 -77 -112 -7 0 -143 92 -143 97 0 2
17 28 37 59 33 49 39 54 64 49 53 -12 37 13 -44 66 -99 65 -93 63 -102 48z"/>
<path d="M4912 1561 c-29 -21 -69 -47 -88 -57 -43 -23 -46 -48 -5 -39 27 6 32
1 120 -134 50 -77 91 -146 91 -154 0 -8 -7 -20 -15 -27 -11 -9 -12 -17 -6 -23
7 -7 58 22 153 83 79 52 144 94 145 95 2 1 -7 27 -20 58 -27 71 -53 75 -48 8
2 -40 -1 -46 -43 -87 -26 -24 -51 -44 -57 -44 -13 0 -189 268 -189 288 0 9 8
24 17 34 10 11 13 22 7 28 -5 5 -30 -6 -62 -29z"/>
<path d="M4674 1411 c-54 -27 -89 -51 -87 -58 3 -8 15 -10 32 -7 26 6 29 2
100 -146 40 -84 70 -157 67 -163 -3 -7 -11 -20 -18 -29 -23 -32 -1 -28 96 18
95 45 112 64 57 64 -26 0 -33 10 -99 150 -40 82 -72 153 -72 158 0 5 7 15 15
22 15 13 21 41 8 39 -5 -1 -49 -22 -99 -48z"/>
<path d="M2579 1312 c-230 -208 -259 -232 -284 -232 -16 0 -25 -6 -25 -15 0
-8 6 -15 13 -15 6 0 36 -11 64 -25 57 -26 84 -16 42 16 l-23 17 39 36 c21 20
42 36 46 36 4 0 32 -12 64 -26 l57 -26 -7 -52 c-3 -28 -8 -52 -9 -54 -2 -1
-15 2 -29 7 -18 7 -28 7 -33 0 -3 -6 -4 -12 -3 -14 7 -6 192 -85 201 -85 13 0
9 22 -7 34 -12 9 -13 40 -4 221 10 195 9 210 -7 222 -10 7 -21 13 -24 13 -4 0
-36 -26 -71 -58z m-4 -119 c-4 -38 -8 -69 -10 -71 -2 -2 -72 27 -84 35 -5 4
90 103 97 103 3 0 1 -30 -3 -67z"/>
<path d="M4442 1317 c-93 -31 -109 -48 -57 -57 24 -4 31 -14 47 -60 10 -30 17
-59 14 -65 -3 -10 -130 -55 -153 -55 -6 0 -21 28 -32 63 l-22 62 21 14 c22 15
28 46 8 38 -7 -2 -52 -17 -100 -33 -87 -28 -116 -54 -60 -54 27 0 29 -5 80
-154 28 -85 52 -161 52 -170 0 -8 -9 -20 -21 -27 -14 -7 -18 -14 -11 -21 14
-14 205 49 199 65 -2 7 -13 11 -25 10 -11 -1 -24 3 -30 10 -11 14 -56 147 -51
151 2 2 36 14 74 26 39 13 75 25 81 27 7 3 23 -28 38 -74 l27 -78 -21 -17
c-19 -16 -27 -38 -13 -38 4 0 49 14 100 31 58 19 93 37 93 45 0 9 -11 14 -28
14 -27 0 -29 5 -80 158 -28 87 -52 163 -52 169 0 6 9 15 21 18 20 7 22 27 3
31 -5 1 -51 -12 -102 -29z"/>
<path d="M2840 1267 c0 -8 10 -21 22 -29 l22 -15 -33 -114 c-18 -63 -39 -138
-47 -166 -15 -51 -17 -53 -50 -53 -56 0 -42 -25 22 -39 32 -7 82 -22 112 -32
44 -15 57 -16 64 -7 5 9 -2 17 -22 26 -17 6 -30 19 -30 28 0 20 21 96 29 106
4 4 28 1 55 -7 63 -19 90 -19 133 2 64 30 93 135 52 187 -29 36 -60 51 -186
85 -59 16 -116 33 -125 36 -12 5 -18 2 -18 -8z m225 -102 c14 -13 25 -36 25
-50 0 -44 -27 -94 -56 -105 -27 -11 -80 -5 -88 9 -4 6 17 92 39 159 7 21 54
13 80 -13z"/>
<path d="M3190 1178 c0 -9 9 -18 20 -21 13 -3 20 -13 20 -29 0 -42 -38 -316
-44 -327 -4 -6 -18 -11 -32 -11 -13 0 -24 -6 -24 -13 0 -9 46 -18 158 -31 86
-10 165 -19 176 -20 18 -1 25 13 50 92 11 32 -27 30 -42 -3 -14 -29 -40 -37
-113 -33 l-54 3 2 40 c1 22 5 59 8 83 l6 43 37 -7 c47 -8 62 -21 62 -50 0 -14
6 -24 14 -24 9 0 15 21 20 72 7 77 -5 112 -23 65 -9 -24 -16 -27 -56 -27 -43
0 -45 1 -45 29 0 15 3 50 7 76 l6 47 50 -5 c54 -5 87 -31 87 -68 0 -10 6 -19
14 -19 16 0 26 30 26 77 0 37 4 36 -140 52 -52 6 -116 14 -142 17 -39 6 -48 4
-48 -8z"/>
<path d="M3554 1148 c-8 -13 6 -28 25 -28 23 0 31 -57 31 -231 l0 -127 -25 -6
c-14 -4 -25 -14 -25 -23 0 -13 8 -15 46 -9 26 3 104 6 175 6 143 0 132 -6 145
83 8 57 -10 64 -41 14 -26 -41 -59 -57 -117 -57 l-46 0 -4 168 c-2 92 0 172 5
179 5 6 17 13 28 15 11 2 20 8 19 13 0 12 -209 14 -216 3z"/>
</g>
</svg>
